<?xml version="1.0" encoding="UTF-8" standalone="no"?>
<svg
   xmlns="http://www.w3.org/2000/svg"
   xmlns:sodipodi="http://sodipodi.sourceforge.net/DTD/sodipodi-0.dtd"
   xmlns:inkscape="http://www.inkscape.org/namespaces/inkscape"
   viewBox="-64 0 511 511.9999"
   version="1.1"
   id="svg10"
   sodipodi:docname="clipboard.svg"
   inkscape:version="0.92.5 (2060ec1f9f, 2020-04-08)">
  <defs
     id="defs14" />
  <path
     d="m 336.47266,76.035156 h -47.9961 v -28 c 0,-8.835937 -7.16015,-16 -15.99609,-16 H 237.74609 C 228.92578,7.039062 201.50781,-6.074219 176.51172,2.75 162.82422,7.582031 152.05469,18.347656 147.22266,32.035156 h -34.73047 c -8.83594,0 -16.000002,7.164063 -16.000002,16 v 28 H 48.496094 C 21.988281,76.035156 0.5,97.523438 0.5,124.03125 V 464.00391 C 0.5,490.51172 21.988281,512 48.496094,512 H 336.47656 c 26.50781,0 47.9961,-21.48828 47.9961,-47.99609 V 124.03125 c -0.004,-26.507812 -21.51517,-46.89247 -48,-47.996094 z m -207.98438,-12 h 32 c 8.83594,0 16,-7.164062 16,-16 0,-8.835937 7.16016,-16 15.99609,-16 8.83594,0 16,7.164063 16,16 0,8.835938 7.16407,16 16,16 h 31.9961 V 132.03125 H 128.48828 Z M 352.47266,464.00391 c 0,8.83593 -7.16407,16 -16,16 H 48.496094 c -8.835938,0 -16,-7.16407 -16,-16 V 124.03125 c 0,-8.83594 7.171723,-15.63213 16,-16 h 47.996094 v 40 c 0,8.83594 7.164062,15.99609 16.000002,15.99609 h 159.98828 c 8.83594,0 15.99609,-7.16015 15.99609,-15.99609 v -40 h 48 c 8.83594,0 15.9961,7.16406 15.9961,16 z"
     id="path2"
     inkscape:connector-curvature="0"
     sodipodi:nodetypes="scsscccsscsssssscscsssssccccsssssscsssscsss" />
</svg>
